<?xml version="1.0" standalone="no"?>
<!DOCTYPE svg PUBLIC "-//W3C//DTD SVG 20010904//EN"
 "http://www.w3.org/TR/2001/REC-SVG-20010904/DTD/svg10.dtd">
<svg version="1.0" xmlns="http://www.w3.org/2000/svg"
 width="4001.000000pt" height="4001.000000pt" viewBox="0 0 4001.000000 4001.000000"
 preserveAspectRatio="xMidYMid meet">

<g transform="translate(0.000000,4001.000000) scale(0.100000,-0.100000)"
fill="#000000" stroke="none">
<path d="M8836 31458 c5 -7 148 -215 318 -463 170 -247 427 -621 571 -830 312
-454 963 -1399 1545 -2245 233 -338 591 -858 795 -1155 337 -490 616 -895
1390 -2020 144 -209 457 -663 695 -1010 239 -346 452 -657 475 -690 42 -61
101 -146 1156 -1680 322 -467 830 -1205 1129 -1640 300 -434 571 -829 604
-877 55 -81 58 -89 44 -105 -9 -10 -323 -376 -698 -813 -375 -437 -937 -1092
-1249 -1454 -311 -363 -733 -853 -936 -1090 -204 -237 -604 -703 -890 -1036
-644 -749 -2821 -3283 -3664 -4264 -344 -401 -780 -909 -968 -1128 -189 -219
-343 -400 -343 -403 0 -3 428 -4 952 -3 l952 3 401 466 c1115 1297 1402 1631
1769 2059 220 256 481 560 581 675 99 116 1049 1220 2110 2455 1061 1235 2135
2484 2385 2775 251 292 460 529 466 528 5 -1 36 -42 69 -90 77 -111 581 -844
1200 -1743 263 -382 745 -1082 1070 -1555 326 -473 731 -1062 902 -1310 170
-247 529 -769 798 -1160 269 -390 507 -737 530 -770 23 -33 237 -343 475 -690
238 -346 503 -731 588 -855 86 -124 225 -326 310 -450 86 -124 173 -251 196
-283 l40 -57 3299 0 3299 0 -18 27 c-9 16 -185 271 -389 568 -204 297 -517
752 -695 1010 -724 1052 -1197 1739 -1438 2090 -141 204 -429 622 -641 930
-415 604 -449 653 -1186 1723 -269 392 -523 760 -564 820 -40 59 -147 213
-236 342 -89 129 -282 411 -430 625 -147 215 -291 424 -320 465 -29 41 -152
221 -275 400 -123 179 -242 352 -265 385 -23 33 -211 305 -417 605 -206 300
-565 822 -798 1160 -654 949 -841 1221 -1151 1673 l-288 418 303 352 c166 194
666 775 1110 1292 445 517 1036 1206 1315 1530 832 967 2004 2331 3821 4445
943 1097 1728 2010 1744 2027 l28 33 -955 0 -954 0 -810 -937 c-725 -839
-1463 -1698 -5380 -6258 -586 -682 -1069 -1241 -1072 -1242 -3 -1 -42 51 -85
115 -44 64 -338 493 -655 952 -316 459 -718 1044 -894 1300 -176 256 -413 600
-527 765 -113 165 -451 656 -750 1090 -299 435 -562 817 -585 850 -23 33 -211
305 -417 605 -521 757 -1181 1717 -1431 2080 -116 168 -268 389 -339 493
l-129 187 -3300 0 c-2638 0 -3299 -3 -3293 -12z m6155 -1990 c194 -282 371
-540 394 -573 41 -59 303 -440 853 -1240 152 -220 294 -427 317 -460 23 -33
211 -305 417 -605 414 -603 910 -1323 2181 -3170 468 -679 958 -1392 1090
-1585 217 -316 622 -904 992 -1440 76 -110 357 -517 623 -905 267 -388 504
-732 527 -765 23 -33 262 -379 530 -770 269 -390 653 -948 853 -1240 721
-1046 1532 -2225 2378 -3455 237 -344 646 -938 909 -1320 263 -382 576 -837
695 -1010 119 -173 302 -439 406 -590 105 -151 193 -281 197 -288 7 -9 -291
-12 -1476 -12 l-1484 0 -163 238 c-143 207 -613 890 -1585 2302 -150 217 -507
737 -795 1155 -736 1069 -998 1450 -1380 2005 -183 267 -352 512 -375 545 -57
82 -1038 1508 -1404 2040 -308 449 -981 1426 -1301 1890 -261 378 -741 1075
-1374 1995 -296 432 -558 812 -581 845 -23 33 -187 272 -365 530 -697 1014
-1809 2628 -1865 2710 -23 33 -162 236 -310 450 -147 215 -291 424 -320 465
-107 154 -835 1213 -1393 2025 -152 220 -290 420 -307 445 -17 25 -71 102
-119 173 l-87 127 1485 0 1484 0 353 -512z"/>
</g>
</svg>
